<mxfile host="app.diagrams.net" agent="Mozilla/5.0 (Windows NT 10.0; Win64; x64) AppleWebKit/537.36 (KHTML, like Gecko) Chrome/127.0.0.0 Safari/537.36 Edg/127.0.0.0" version="24.7.5">
  <diagram id="k2DQX3MKSc7upClH08hr" name="Page-1">
    <mxGraphModel dx="1884" dy="501" grid="1" gridSize="10" guides="1" tooltips="1" connect="1" arrows="1" fold="1" page="1" pageScale="1" pageWidth="850" pageHeight="1100" math="0" shadow="0">
      <root>
        <mxCell id="0" />
        <mxCell id="1" parent="0" />
        <mxCell id="OLXnaSrGk72bgpd4BDhm-8" style="edgeStyle=orthogonalEdgeStyle;rounded=0;orthogonalLoop=1;jettySize=auto;html=1;entryX=0.5;entryY=0;entryDx=0;entryDy=0;" edge="1" parent="1" source="OLXnaSrGk72bgpd4BDhm-3" target="OLXnaSrGk72bgpd4BDhm-4">
          <mxGeometry relative="1" as="geometry" />
        </mxCell>
        <mxCell id="OLXnaSrGk72bgpd4BDhm-3" value="Root" style="ellipse;whiteSpace=wrap;html=1;" vertex="1" parent="1">
          <mxGeometry x="345" y="50" width="80" height="50" as="geometry" />
        </mxCell>
        <mxCell id="OLXnaSrGk72bgpd4BDhm-23" style="edgeStyle=orthogonalEdgeStyle;rounded=0;orthogonalLoop=1;jettySize=auto;html=1;" edge="1" parent="1" source="OLXnaSrGk72bgpd4BDhm-4">
          <mxGeometry relative="1" as="geometry">
            <mxPoint x="530" y="300" as="targetPoint" />
          </mxGeometry>
        </mxCell>
        <mxCell id="OLXnaSrGk72bgpd4BDhm-4" value="w" style="ellipse;whiteSpace=wrap;html=1;" vertex="1" parent="1">
          <mxGeometry x="490" y="130" width="80" height="50" as="geometry" />
        </mxCell>
        <mxCell id="OLXnaSrGk72bgpd4BDhm-5" value="t" style="ellipse;whiteSpace=wrap;html=1;" vertex="1" parent="1">
          <mxGeometry x="180" y="130" width="80" height="50" as="geometry" />
        </mxCell>
        <mxCell id="OLXnaSrGk72bgpd4BDhm-6" value="&lt;div&gt;&lt;font style=&quot;font-size: 14px;&quot;&gt;Word with &quot;twiiter&quot;,&amp;nbsp;&lt;br&gt;&quot;Wikipedia&quot;&lt;/font&gt;&lt;/div&gt;" style="text;html=1;align=center;verticalAlign=middle;resizable=0;points=[];autosize=1;strokeColor=none;fillColor=none;" vertex="1" parent="1">
          <mxGeometry x="445" y="18" width="140" height="50" as="geometry" />
        </mxCell>
        <mxCell id="OLXnaSrGk72bgpd4BDhm-7" style="edgeStyle=orthogonalEdgeStyle;rounded=0;orthogonalLoop=1;jettySize=auto;html=1;entryX=0.692;entryY=0.133;entryDx=0;entryDy=0;entryPerimeter=0;" edge="1" parent="1" source="OLXnaSrGk72bgpd4BDhm-3" target="OLXnaSrGk72bgpd4BDhm-5">
          <mxGeometry relative="1" as="geometry" />
        </mxCell>
        <mxCell id="OLXnaSrGk72bgpd4BDhm-16" style="edgeStyle=orthogonalEdgeStyle;rounded=0;orthogonalLoop=1;jettySize=auto;html=1;" edge="1" parent="1" source="OLXnaSrGk72bgpd4BDhm-9" target="OLXnaSrGk72bgpd4BDhm-13">
          <mxGeometry relative="1" as="geometry" />
        </mxCell>
        <mxCell id="OLXnaSrGk72bgpd4BDhm-9" value="tr" style="ellipse;whiteSpace=wrap;html=1;" vertex="1" parent="1">
          <mxGeometry x="50" y="230" width="80" height="50" as="geometry" />
        </mxCell>
        <mxCell id="OLXnaSrGk72bgpd4BDhm-10" value="to" style="ellipse;whiteSpace=wrap;html=1;" vertex="1" parent="1">
          <mxGeometry x="265" y="230" width="80" height="50" as="geometry" />
        </mxCell>
        <mxCell id="OLXnaSrGk72bgpd4BDhm-11" value="tree:29" style="ellipse;whiteSpace=wrap;html=1;" vertex="1" parent="1">
          <mxGeometry x="-50" y="440" width="80" height="50" as="geometry" />
        </mxCell>
        <mxCell id="OLXnaSrGk72bgpd4BDhm-12" value="toy: 14" style="ellipse;whiteSpace=wrap;html=1;" vertex="1" parent="1">
          <mxGeometry x="265" y="360" width="80" height="50" as="geometry" />
        </mxCell>
        <mxCell id="OLXnaSrGk72bgpd4BDhm-18" style="edgeStyle=orthogonalEdgeStyle;rounded=0;orthogonalLoop=1;jettySize=auto;html=1;" edge="1" parent="1" source="OLXnaSrGk72bgpd4BDhm-13" target="OLXnaSrGk72bgpd4BDhm-11">
          <mxGeometry relative="1" as="geometry" />
        </mxCell>
        <mxCell id="OLXnaSrGk72bgpd4BDhm-13" value="tre" style="ellipse;whiteSpace=wrap;html=1;" vertex="1" parent="1">
          <mxGeometry x="-50" y="310" width="80" height="50" as="geometry" />
        </mxCell>
        <mxCell id="OLXnaSrGk72bgpd4BDhm-20" style="edgeStyle=orthogonalEdgeStyle;rounded=0;orthogonalLoop=1;jettySize=auto;html=1;entryX=0.5;entryY=0;entryDx=0;entryDy=0;" edge="1" parent="1" source="OLXnaSrGk72bgpd4BDhm-14" target="OLXnaSrGk72bgpd4BDhm-19">
          <mxGeometry relative="1" as="geometry" />
        </mxCell>
        <mxCell id="OLXnaSrGk72bgpd4BDhm-14" value="tru" style="ellipse;whiteSpace=wrap;html=1;" vertex="1" parent="1">
          <mxGeometry x="110" y="300" width="80" height="50" as="geometry" />
        </mxCell>
        <mxCell id="OLXnaSrGk72bgpd4BDhm-15" style="edgeStyle=orthogonalEdgeStyle;rounded=0;orthogonalLoop=1;jettySize=auto;html=1;entryX=0.617;entryY=-0.027;entryDx=0;entryDy=0;entryPerimeter=0;" edge="1" parent="1" source="OLXnaSrGk72bgpd4BDhm-5" target="OLXnaSrGk72bgpd4BDhm-9">
          <mxGeometry relative="1" as="geometry" />
        </mxCell>
        <mxCell id="OLXnaSrGk72bgpd4BDhm-17" style="edgeStyle=orthogonalEdgeStyle;rounded=0;orthogonalLoop=1;jettySize=auto;html=1;entryX=0.625;entryY=0;entryDx=0;entryDy=0;entryPerimeter=0;" edge="1" parent="1" source="OLXnaSrGk72bgpd4BDhm-9" target="OLXnaSrGk72bgpd4BDhm-14">
          <mxGeometry relative="1" as="geometry" />
        </mxCell>
        <mxCell id="OLXnaSrGk72bgpd4BDhm-19" value="trump:45" style="ellipse;whiteSpace=wrap;html=1;" vertex="1" parent="1">
          <mxGeometry x="110" y="430" width="80" height="50" as="geometry" />
        </mxCell>
        <mxCell id="OLXnaSrGk72bgpd4BDhm-21" style="edgeStyle=orthogonalEdgeStyle;rounded=0;orthogonalLoop=1;jettySize=auto;html=1;entryX=0.596;entryY=-0.053;entryDx=0;entryDy=0;entryPerimeter=0;" edge="1" parent="1" source="OLXnaSrGk72bgpd4BDhm-5" target="OLXnaSrGk72bgpd4BDhm-10">
          <mxGeometry relative="1" as="geometry" />
        </mxCell>
        <mxCell id="OLXnaSrGk72bgpd4BDhm-22" style="edgeStyle=orthogonalEdgeStyle;rounded=0;orthogonalLoop=1;jettySize=auto;html=1;entryX=0.604;entryY=0.067;entryDx=0;entryDy=0;entryPerimeter=0;" edge="1" parent="1" source="OLXnaSrGk72bgpd4BDhm-10" target="OLXnaSrGk72bgpd4BDhm-12">
          <mxGeometry relative="1" as="geometry" />
        </mxCell>
      </root>
    </mxGraphModel>
  </diagram>
</mxfile>
